<svg width="47" height="39" viewBox="0 0 47 39" fill="none" xmlns="http://www.w3.org/2000/svg">
<path fill-rule="evenodd" clip-rule="evenodd" d="M16.1398 0C17.4744 7.6177e-06 18.7501 0.556409 19.6659 1.53801L22.065 4.10954C22.9809 5.09115 24.2565 5.64754 25.5912 5.64754H42.1525C44.8297 5.64754 47 7.84208 47 10.5492V34.0984C47 36.8055 44.8297 39 42.1525 39H4.84753C2.17032 39 0 36.8055 0 34.0984V4.90164C1.38568e-05 2.19455 2.17033 -3.45399e-07 4.84753 0H16.1398ZM23.3882 26.7303V32.536H41.0987V26.7303H23.3882ZM6.19938 11.0449L14.854 19.839L6.24157 27.7366L10.4422 32.475L23.4667 20.0952L10.7378 6.71207L6.19938 11.0449Z" fill="white"/>
</svg>
