<svg xmlns="http://www.w3.org/2000/svg" version="1.1" xmlns:xlink="http://www.w3.org/1999/xlink" width="339" height="339"><svg xmlns="http://www.w3.org/2000/svg" version="1.1" xmlns:xlink="http://www.w3.org/1999/xlink" width="339" height="339"><svg width="339" height="339" viewBox="0 0 339 339" fill="none" xmlns="http://www.w3.org/2000/svg">
<path fill-rule="evenodd" clip-rule="evenodd" d="M119.261 35C128.462 35.0001 137.256 38.8378 143.569 45.6083L160.108 63.3453C166.421 70.1159 175.215 73.9536 184.416 73.9536H298.583C317.039 73.9536 332 89.0902 332 107.762V270.191C332 288.863 317.039 304 298.583 304H41.417C22.9613 304 8 288.863 8 270.191V68.8087C8.0001 50.1368 22.9614 35 41.417 35H119.261ZM169.23 219.37V259.415H291.318V219.37H169.23ZM50.7361 111.182L110.398 171.838L51.027 226.311L79.9846 258.994L169.77 173.606L82.022 81.2961L50.7361 111.182Z" fill="black"></path>
</svg></svg><style>@media (prefers-color-scheme: light) { :root { filter: none; } }
@media (prefers-color-scheme: dark) { :root { filter: invert(100%); } }
</style></svg>