<svg width="189" height="149" viewBox="0 0 189 149" fill="none" xmlns="http://www.w3.org/2000/svg">
<path d="M57.1689 148.2C41.4689 146.1 27.7189 139.65 18.3189 130.05C16.1689 127.9 14.4189 125.9 14.4189 125.7C14.4189 125.45 19.9189 125.25 26.6689 125.25C39.8689 125.25 43.1189 124.85 46.0189 122.9C47.8189 121.7 49.4189 119.15 49.4189 117.55C49.4189 116.45 47.6189 114.75 46.4189 114.75C45.8189 114.75 44.4189 115.8 43.1689 117.15L40.9689 119.5H25.3689H9.76895L7.61895 115.25C3.01895 106.15 0.268945 94.9 0.218945 84.85L0.168945 78.7L61.6689 78.55C115.419 78.4 123.719 78.3 127.419 77.6C132.469 76.65 137.619 75.2 139.819 74.05L141.369 73.25L140.019 70.85C136.619 65.05 135.569 57.35 137.169 49.65C137.919 45.95 140.969 39.1 142.919 36.6L144.019 35.25L146.069 36.85C153.719 42.8 158.619 50.15 159.669 57.5C160.069 59.9 160.169 59.95 163.169 59.25C166.419 58.45 174.869 58.6 178.969 59.55C182.919 60.4 188.919 63 188.919 63.8C188.919 64.7 186.869 68.45 184.669 71.55C179.669 78.55 172.469 82.05 161.719 82.6L155.819 82.9L153.769 87.45C142.069 113.25 126.669 130.95 107.669 140.4C102.019 143.25 92.5689 146.45 86.6689 147.55C81.3689 148.5 62.6689 148.95 57.1689 148.2ZM35.4689 107.3C37.2689 105.45 37.3689 103.35 35.7189 101.45C33.2189 98.5 28.4189 100.35 28.4189 104.25C28.4189 108.35 32.6189 110.15 35.4689 107.3Z" fill="#315FE2"/>
<path d="M0.16875 72.1C0.0187497 71.75 -0.0312499 67.1 0.0187501 61.75L0.16875 52L10.1188 51.85C16.6188 51.8 20.2687 51.9 20.6687 52.25C21.1687 52.65 21.3187 55.15 21.2687 62.65L21.1687 72.5L10.7688 72.65C2.61875 72.75 0.31875 72.65 0.16875 72.1Z" fill="#315FE2"/>
<path d="M26.6186 72.1C26.5186 71.75 26.4686 67.2 26.5186 62L26.6686 52.5L37.0686 52.35L47.4186 52.25V62.5V72.75H37.1686C29.2686 72.75 26.8186 72.6 26.6186 72.1Z" fill="#315FE2"/>
<path d="M53.2689 72.4C53.0689 72.25 52.9189 67.6 52.9189 62.15V52.25H63.3689H73.8689L74.0189 58.65C74.1189 62.15 74.1189 66.75 74.0189 68.9L73.8689 72.75H63.7189C58.1689 72.75 53.4189 72.6 53.2689 72.4Z" fill="#315FE2"/>
<path d="M79.6186 72.1C79.5186 71.75 79.4686 67.2 79.5186 62L79.6686 52.5L90.0686 52.35L100.419 52.25V62.5V72.75H90.1686C82.2686 72.75 79.8186 72.6 79.6186 72.1Z" fill="#315FE2"/>
<path d="M105.919 62.5V52.25H116.419H126.919V62.5V72.75H116.419H105.919V62.5Z" fill="#315FE2"/>
<path d="M26.6688 46.25C26.3688 45.7 26.4688 30.65 26.8188 27.6L27.0188 25.75L37.1188 25.85L47.1688 26L47.3188 36.4L47.4188 46.75H37.2188C31.0688 46.75 26.8688 46.55 26.6688 46.25Z" fill="#315FE2"/>
<path d="M53.1688 46.1C53.0188 45.75 52.9687 41.1 53.0187 35.75L53.1688 26L63.5688 25.85L73.9188 25.75L74.0187 31.6C74.0687 34.85 74.1187 39.55 74.1187 42L74.1688 46.5L63.7688 46.65C55.6188 46.75 53.3188 46.65 53.1688 46.1Z" fill="#315FE2"/>
<path d="M79.8687 46.6498C79.6687 46.0998 79.6187 27.3498 79.8187 26.6498C80.0187 25.7998 80.7187 25.7498 90.1187 25.8498L100.169 25.9998L100.319 36.3998L100.419 46.7498H90.1687C84.5187 46.7498 79.9187 46.6998 79.8687 46.6498Z" fill="#315FE2"/>
<path d="M105.919 41.75V36.75H110.919H115.969L115.819 41.65L115.669 46.5L110.819 46.65L105.919 46.8V41.75Z" fill="#315FE2"/>
<path d="M79.6688 20.1C79.5188 19.75 79.4687 15.1 79.5187 9.75L79.6688 0H89.9188H100.169V10.25V20.5L90.0188 20.65C82.0688 20.75 79.8188 20.65 79.6688 20.1Z" fill="#315FE2"/>
<path d="M64.0191 15.6502L64.1691 11.0002L69.0691 10.8502L73.9191 10.7002V15.5002V20.2502H68.9191H63.8691L64.0191 15.6502Z" fill="#315FE2"/>
</svg>
